<?xml version="1.0" standalone="no"?>
<!DOCTYPE svg PUBLIC "-//W3C//DTD SVG 20010904//EN"
 "http://www.w3.org/TR/2001/REC-SVG-20010904/DTD/svg10.dtd">
<svg version="1.0" xmlns="http://www.w3.org/2000/svg"
 width="150.000000pt" height="150.000000pt" viewBox="0 0 150.000000 150.000000"
 preserveAspectRatio="xMidYMid meet">
<metadata>
Created by potrace 1.14, written by Peter Selinger 2001-2017
</metadata>
<g transform="translate(0.000000,150.000000) scale(0.100000,-0.100000)"
fill="#000000" stroke="none">
<path d="M640 1130 c-26 -4 -35 -10 -36 -25 -1 -11 -2 -25 -3 -31 -1 -7 -10
-14 -21 -17 -18 -5 -20 -14 -20 -96 l0 -91 -45 -22 c-24 -12 -47 -29 -51 -37
-9 -23 -5 -184 5 -194 5 -5 132 -9 282 -9 303 -1 299 -2 291 66 -3 23 -14 44
-31 59 -23 19 -27 30 -28 85 -1 35 -4 67 -8 70 -9 9 -25 -19 -25 -45 0 -14 -5
-21 -13 -17 -9 3 -13 25 -13 72 1 66 1 67 -26 70 -28 3 -34 -7 -29 -46 1 -7
-4 -11 -10 -10 -7 2 -15 -6 -17 -17 -2 -11 -10 -27 -17 -35 -7 -8 -15 -27 -17
-42 -3 -24 -5 -25 -22 -12 -15 11 -20 27 -21 73 -1 38 -7 64 -17 74 -10 10
-15 30 -13 57 2 30 -2 43 -15 50 -12 6 -16 19 -14 39 4 33 -10 40 -66 31z"/>
<path d="M955 1104 c-36 -36 3 -89 48 -65 27 15 31 38 9 64 -19 21 -36 22 -57
1z"/>
</g>
</svg>
